<svg width="100" height="140" viewBox="0 0 100 140" fill="none" xmlns="http://www.w3.org/2000/svg">
<mask id="mask0_155_3624" style="mask-type:luminance" maskUnits="userSpaceOnUse" x="0" y="0" width="100" height="140">
<path d="M99.778 0H0V139.322H99.778V0Z" fill="white"/>
</mask>
<g mask="url(#mask0_155_3624)">
<path d="M19.6128 3.90003C19.4368 4.00003 19.2608 4.10003 19.0868 4.20003C12.6031 7.96816 7.7834 14.0477 5.59375 21.22C4.3927 25.5428 4.22637 30.0876 5.10822 34.4866C5.99007 38.8856 7.89533 43.0152 10.6698 46.541C11.241 47.2616 11.8555 47.9469 12.5098 48.593L14.2888 50.442L15.0278 53.103C15.7058 56.0725 17.2603 58.7697 19.4898 60.845C25.5388 65.838 34.8028 64.089 41.3308 61.197C45.7668 59.232 45.3308 57.978 45.0418 57.397C44.5418 56.397 42.9418 56.272 40.1138 57.543C35.3048 59.7 30.3198 60.818 25.6008 59.711C23.8877 59.365 22.3172 58.5151 21.0904 57.2704C19.8637 56.0257 19.0368 54.4429 18.7158 52.725C18.1975 50.2453 17.0182 47.952 15.3028 46.088C8.76275 40.036 6.80275 29.288 9.54175 20.96C9.97033 19.6703 10.525 18.4259 11.1978 17.245C13.4837 13.3475 16.706 10.082 20.5726 7.74416C24.4392 5.40634 28.8279 4.07017 33.3413 3.85667C37.8547 3.64318 42.35 4.55912 46.42 6.52151C50.49 8.4839 54.0061 11.4307 56.6498 15.095C57.4608 16.287 57.4758 16.377 56.9098 16.659C55.5694 17.7669 54.5479 19.2112 53.9498 20.844C53.6718 21.993 54.1028 23.219 54.8768 23.477C55.6668 23.741 56.4968 23.133 57.2628 21.729C57.62 21.0458 58.0748 20.4183 58.6128 19.866C59.1408 19.422 59.3128 19.432 59.7438 19.936C60.5961 21.1614 61.0201 22.634 60.9498 24.125C60.8515 25.1974 60.3994 26.2067 59.6648 26.994C58.4038 28.644 58.2778 29.111 58.8118 30.179C59.2278 31.011 59.9068 31.131 61.0278 30.571C61.345 30.3707 61.7 30.2376 62.0708 30.18C62.2384 31.8069 62.2357 33.4468 62.0628 35.073C61.8018 37.387 60.3418 41.453 59.4088 42.462C57.0608 45.002 56.6628 46.633 58.1778 47.508C58.8778 47.913 59.0778 47.887 59.9688 47.265C60.4181 46.8922 60.9102 46.5743 61.4348 46.318C67.6898 45.185 75.6118 47.205 77.4218 47.832C80.5408 48.913 81.4147 49.322 81.6618 49.819C82.1828 50.862 84.3378 50.819 84.4548 49.76C84.2296 48.826 83.8827 47.9256 83.4228 47.082C82.8117 45.8177 82.3125 44.5024 81.9307 43.151C81.9307 43.151 81.3207 41.28 82.4717 42.31C83.6227 43.34 84.1308 43.54 84.9648 42.995C85.7778 42.463 86.0008 41.395 85.8078 38.949C85.6568 37.037 85.8768 36.927 86.8518 38.072C87.0989 38.4257 87.403 38.7359 87.7518 38.99C88.4128 39.283 89.5918 38.564 89.4908 37.984C89.3898 37.404 89.5417 36.257 89.9577 36.648C90.2576 36.9529 90.521 37.2915 90.7428 37.657C91.5368 38.678 92.1428 39.735 93.1428 38.804C93.6598 38.325 94.0258 37.922 94.6298 39.51C94.8958 40.21 95.1688 40.927 95.5998 40.51C96.1928 39.93 96.8457 40.71 96.7848 42.123C96.7238 43.536 96.4688 43.303 96.5848 43.897C97.0138 46.091 95.6127 49.239 93.3018 51.268C92.7958 51.6834 92.3445 52.1612 91.9587 52.69C91.8847 53.0212 91.9243 53.3677 92.0713 53.6735C92.2182 53.9794 92.4639 54.2269 92.7688 54.376C94.3118 54.89 93.2787 58.895 90.0798 60.539C87.2678 61.985 80.1858 62.913 74.7798 61.805C73.7948 61.605 72.3118 61.535 71.7598 61.972C70.8278 62.71 71.3508 64.309 72.6598 64.913C74.796 65.5292 76.9969 65.8936 79.2178 65.999C79.8907 65.972 81.8618 66.152 83.3398 66.11C88.7398 65.959 92.2398 64.219 94.6828 61.21C95.5793 60.0599 96.2192 58.7312 96.5595 57.3132C96.8998 55.8952 96.9326 54.4208 96.6558 52.989C96.4408 51.989 96.3418 52.463 97.4167 50.831C98.0826 49.7839 98.6539 48.6795 99.1237 47.531C100.3 44.497 99.5058 43.539 99.5988 41.937C99.6988 40.251 98.5488 38.66 98.0228 38.586C97.4967 38.512 96.8158 37.629 96.6448 37.186C96.0228 35.559 94.9198 35.34 93.5318 35.433C92.8068 35.481 92.7318 35.616 92.5228 35.306C91.9532 34.5815 91.2128 34.0097 90.3678 33.642C89.8885 33.5196 89.3842 33.5375 88.9148 33.6937C88.4455 33.8499 88.031 34.1378 87.7207 34.523C87.1448 35.353 85.9208 32.935 83.8938 33.816C83.1367 34.146 82.9658 34.508 82.7588 35.751C82.6635 36.6389 82.6871 37.5354 82.8288 38.417C82.9167 38.845 81.9147 38.4 81.9147 38.4C79.6017 37.925 78.1147 39.962 78.7477 42.742C78.8797 43.2605 78.9822 43.786 79.0547 44.316C78.6014 44.3019 78.1537 44.211 77.7308 44.047C74.1183 43.1777 70.4383 42.618 66.7308 42.374L64.1838 42.298L64.4178 41.268C64.5478 40.699 64.9238 39.125 65.2588 37.752C66.2348 33.744 66.0738 29.061 64.8778 26.666C64.6269 26.2208 64.5352 25.7034 64.6178 25.199C64.7554 24.4548 64.7709 23.6932 64.6638 22.944C64.523 21.4948 64.0241 20.1034 63.2118 18.895C62.7539 17.982 62.1897 17.1264 61.5308 16.346C61.0689 15.8333 60.7028 15.242 60.4498 14.6C59.8475 13.4234 59.1346 12.3067 58.3208 11.265C53.6668 5.34103 46.4678 1.71103 39.1498 0.412027C32.4302 -0.683504 25.5381 0.546978 19.6128 3.90003Z" fill="#2A518A"/>
<path d="M22.2795 18.367C21.6716 18.8955 20.9669 19.301 20.2045 19.561C18.3395 20.261 17.9955 20.879 18.6895 22.27C19.0545 23 19.0285 23.243 18.5465 23.645C17.9776 24.0042 17.3293 24.2184 16.6585 24.269C15.0165 24.44 14.8005 24.545 14.5385 25.308C14.2385 26.176 14.6925 26.94 16.1845 28.084C17.6765 29.228 17.6525 29.884 16.0605 30.684C14.1765 31.625 11.9795 30.869 11.4275 29.908C10.9675 29.108 9.69546 29.395 9.33346 30.182C9.12646 30.633 9.34746 32.419 12.1115 33.496C12.9578 33.8693 13.8819 34.0321 14.8048 33.9706C15.7278 33.9092 16.6221 33.6252 17.4115 33.143C18.8284 32.5788 19.9808 31.5016 20.6395 30.126C20.9925 29.307 20.6655 28.826 20.1705 27.837C20.1705 27.837 19.0215 26.667 19.5515 26.476C19.9077 26.3391 20.2467 26.1609 20.5615 25.945C21.6545 25.2 22.4995 23.366 22.1075 22.584C21.9155 22.198 22.0815 22.01 23.0465 21.528C23.741 21.1814 24.3542 20.6915 24.8456 20.0906C25.337 19.4897 25.6955 18.7915 25.8975 18.042C25.9653 17.7732 25.9526 17.4904 25.861 17.2287C25.7695 16.967 25.6031 16.7379 25.3825 16.57C24.1025 15.624 22.7735 17.786 22.2825 18.37" fill="#2A518A"/>
<path d="M21.91 27.448C21.777 28.548 22.433 29.307 22.993 29.254C23.258 29.2151 23.5005 29.0829 23.677 28.8814C23.8535 28.6798 23.9524 28.4219 23.956 28.154C23.993 27.695 24.545 27.492 25.456 27.375C26.356 27.261 26.528 27.014 26.544 26.418C26.571 25.311 24.708 25.054 23.144 25.836C22.8108 25.9667 22.5195 26.1858 22.3016 26.4696C22.0836 26.7535 21.9472 27.0914 21.907 27.447" fill="#2A518A"/>
<path d="M11.7155 38.3C11.6395 38.6857 11.6447 39.0831 11.7308 39.4667C11.8169 39.8503 11.982 40.2118 12.2155 40.528C12.9155 41.399 13.7645 40.389 13.6285 39.883C13.5625 39.7249 13.5358 39.5531 13.5509 39.3824C13.566 39.2117 13.6224 39.0472 13.7152 38.9031C13.808 38.7591 13.9345 38.6397 14.0836 38.5554C14.2328 38.4711 14.4003 38.4242 14.5715 38.419C14.6874 38.4134 14.8004 38.3817 14.9023 38.3264C15.0043 38.2711 15.0924 38.1935 15.1602 38.0995C15.2281 38.0054 15.2738 37.8973 15.2941 37.7831C15.3144 37.669 15.3088 37.5517 15.2775 37.44C15.1125 36.761 14.5085 36.594 13.8715 36.653C13.3868 36.6748 12.9204 36.8444 12.5348 37.139C12.1492 37.4336 11.863 37.8391 11.7145 38.301" fill="#2A518A"/>
<path d="M27.4719 34.4341C27.3494 34.9922 27.3848 35.5734 27.5739 36.1126C27.7631 36.6518 28.0986 37.1277 28.5429 37.4871C28.9086 37.8439 29.3803 38.0724 29.887 38.1382C30.3938 38.204 30.9082 38.1036 31.3529 37.8521C31.6428 37.6665 31.8918 37.4237 32.0846 37.1386C32.2774 36.8535 32.41 36.532 32.4742 36.1939C32.5384 35.8557 32.5329 35.508 32.4581 35.1721C32.3832 34.8361 32.2406 34.519 32.0389 34.2401C31.2589 32.9991 30.0959 32.4271 29.1099 32.7561C28.7051 32.85 28.3357 33.058 28.0454 33.3554C27.7551 33.6528 27.5561 34.0271 27.4719 34.4341Z" fill="#2A518A"/>
<path d="M18.1792 45.24C18.0362 45.9411 18.1346 46.67 18.4585 47.3081C18.7825 47.9461 19.3128 48.4557 19.9632 48.754C20.4834 48.9266 21.0498 48.8939 21.5467 48.6627C22.0435 48.4314 22.4333 48.0191 22.6362 47.51C22.8621 46.7785 22.7971 45.988 22.4547 45.3033C22.1123 44.6185 21.5189 44.0922 20.7982 43.834C20.534 43.7508 20.2558 43.7212 19.98 43.7471C19.7042 43.7731 19.4364 43.8539 19.1923 43.9849C18.9483 44.116 18.7329 44.2945 18.5589 44.5101C18.3849 44.7256 18.2558 44.9738 18.1792 45.24Z" fill="#2A518A"/>
<path d="M26.3978 48.14C26.567 48.2652 26.7596 48.355 26.9643 48.4039C27.1689 48.4529 27.3814 48.4601 27.5888 48.425C27.7105 48.4263 27.831 48.4018 27.9425 48.3531C28.054 48.3045 28.1539 48.2327 28.2357 48.1426C28.3174 48.0525 28.3792 47.9461 28.4168 47.8304C28.4544 47.7147 28.4671 47.5924 28.454 47.4714C28.4409 47.3505 28.4024 47.2337 28.3408 47.1287C28.2793 47.0237 28.1963 46.933 28.0971 46.8625C27.998 46.792 27.885 46.7433 27.7657 46.7196C27.6464 46.6959 27.5234 46.6977 27.4048 46.725C27.0178 46.806 26.2228 47.212 26.2148 47.673C26.2174 47.846 26.2824 48.0112 26.3978 48.14Z" fill="#2A518A"/>
<path d="M33.2049 47.797C33.0109 48.519 33.1919 49.097 32.8529 49.597C32.6119 49.8914 32.2957 50.1149 31.9379 50.244C31.1379 50.374 29.8269 50.324 29.7129 51.461C29.5579 52.999 30.9679 53.483 32.3809 53.267C33.541 53.1346 34.61 52.5743 35.3791 51.6958C36.1482 50.8172 36.5621 49.6834 36.5399 48.516C36.5749 47.293 35.5849 45.738 34.8169 45.811C33.8169 45.905 33.4699 46.819 33.2059 47.801" fill="#2A518A"/>
<path d="M12.891 69.098C12.674 69.598 12.5774 70.1419 12.609 70.686L12.68 71.612L11.3 71.849C9.10899 72.226 8.05799 72.883 7.68999 74.106C7.02199 76.331 8.24599 77.932 10.16 78.742C10.439 78.86 9.87799 79.726 9.87799 79.726C9.78599 80.847 9.95399 81.789 11.19 82.201C11.366 82.26 11.648 83.176 11.896 83.672C12.0346 83.9677 12.2339 84.2309 12.481 84.4444C12.728 84.6578 13.0173 84.8169 13.33 84.911C13.8234 85.0527 14.2577 85.3502 14.568 85.759C14.917 86.459 15.782 86.604 17.46 85.987C17.83 85.851 18.711 86.4291 21.113 86.041C21.89 85.916 22.113 85.713 22.629 86.163C23.9657 87.4366 25.4995 88.4858 27.171 89.27C28.0639 89.6456 29.0468 89.7536 30 89.5811C31.375 89.4581 32.351 88.7551 32.458 87.8741C32.611 86.621 31.138 86.181 29.886 86.217C28.738 86.251 25.12 84.331 24.225 83.217C23.463 82.265 23.234 82.073 21.332 82.766C20.4641 83.1191 19.5396 83.3126 18.603 83.337C18.1534 83.2355 17.6837 83.2703 17.254 83.437C16.81 83.659 15.971 83.475 15.944 83.172C15.923 82.933 15.915 82.753 15.357 82.543C14.501 82.221 14.329 82.032 14.308 81.389C14.299 81.2196 14.2563 81.0536 14.1824 80.9009C14.1085 80.7481 14.0048 80.6117 13.8775 80.4995C13.7503 80.3873 13.6019 80.3016 13.441 80.2474C13.2802 80.1933 13.1102 80.1717 12.941 80.184C12.714 80.213 12.073 79.771 13.015 79.154C13.2139 78.9989 13.3765 78.8022 13.4914 78.5776C13.6062 78.3531 13.6706 78.1061 13.68 77.854C13.615 77.254 12.494 76.388 11.398 76.087C10.139 75.74 10.051 75.152 11.206 74.787C12.7273 74.309 13.8993 74.3967 14.722 75.05C15.906 75.99 16.7 75.921 17.069 74.85C17.24 74.35 17.069 73.881 16.2 72.426C15.178 70.72 15.637 70.507 16.6 70.861C16.985 71.003 17.654 72.124 19.095 73.196C20.536 74.268 22.095 75.349 22.57 75.596C25.1051 76.3691 27.718 76.8588 30.361 77.056C32.261 77.183 32.749 76.813 33.679 74.564C34.6939 72.1358 35.9263 69.8044 37.361 67.598C38.636 65.585 38.906 64.546 37.797 63.908C37.136 63.527 36.718 63.689 35.677 64.28C34.684 64.843 34.151 65.68 32.79 68.104C31.89 69.704 30.902 71.555 30.598 72.197L30.044 73.37L27.854 73.194C26.665 73.094 24.598 72.819 24.33 72.794C23.067 72.684 23.211 72.715 20.757 70.742C17.306 67.969 16.629 67.842 15.204 67.93C13.904 68.006 13.317 68.305 12.89 69.104" fill="#2A518A"/>
<path d="M40.5836 65.846C39.0006 67.169 37.7906 73.503 38.1226 78.128C38.2166 79.45 38.3226 81.01 38.3616 81.561C38.4676 83.214 36.1116 84.8 35.0496 85.906C32.8596 88.187 31.9686 90.887 31.1096 93.886L29.1676 94.109C22.3096 94.896 17.7306 98.165 12.5806 105.426C12.5806 105.426 10.7206 108.215 10.0336 108.193C8.7393 108.17 7.44958 108.031 6.17964 107.78C4.13964 107.219 2.44764 107.1 1.71964 107.464C0.339645 108.154 -0.470355 111.1 0.300645 112.641C0.635415 113.137 0.819808 113.719 0.831645 114.317C0.631645 115.772 0.921645 116.031 1.96864 117.673C1.98793 118.509 2.19579 119.33 2.57673 120.075C2.95767 120.819 3.50184 121.468 4.16864 121.973C5.25157 122.607 6.46225 122.992 7.71264 123.1C10.2246 123.219 12.4036 124.81 14.9236 124.826C17.5956 124.843 21.5666 122.583 22.5846 119.993C22.8566 119.301 23.8336 118.914 24.4296 118.593C26.4776 117.5 29.8606 116.245 30.5876 115.048C30.9471 114.608 31.1335 114.053 31.1118 113.485C31.0901 112.918 30.8617 112.378 30.4696 111.967C29.8076 111.216 28.6216 112.137 27.9766 112.529C25.7896 113.858 23.4616 114.91 21.2256 116.146C20.4122 116.484 19.7476 117.103 19.3536 117.891C19.0465 118.615 18.5923 119.266 18.02 119.805C17.4476 120.344 16.7694 120.757 16.0286 121.02C15.1616 121.269 14.3476 121.135 12.3356 120.412C11.0847 119.941 9.77944 119.63 8.45064 119.485C7.74162 119.487 7.03623 119.384 6.35764 119.178C5.67864 118.914 5.55764 118.733 5.45764 117.868C5.4184 117.168 5.16728 116.497 4.73764 115.944C4.05064 115.257 3.91364 114.786 4.30664 114.099C4.46965 113.813 3.03164 111.646 3.46364 111.135C3.89564 110.624 4.93164 111.271 6.26364 111.584C7.3011 111.825 8.36086 111.956 9.42564 111.976C10.3946 111.941 11.9656 112.236 12.7106 111.471C13.4556 110.706 17.4196 104.081 20.8546 101.631C22.8679 100.183 25.0869 99.0456 27.4376 98.256C28.3762 97.9246 29.3555 97.7227 30.3486 97.656C31.2547 97.6116 32.1458 97.4085 32.9816 97.056C33.8386 96.628 34.0746 96.282 34.5906 94.688C35.7746 91.035 36.9526 88.476 40.7396 85.488C41.3091 85.0427 41.7578 84.4616 42.0446 83.798C42.1273 82.3771 42.1016 80.952 41.9676 79.535C41.8326 77.549 41.7676 75.179 41.8276 74.293C42.0656 72.113 42.5051 69.9598 43.1406 67.861C43.2289 67.4802 43.24 67.0855 43.1734 66.7003C43.1067 66.3151 42.9637 65.9471 42.7526 65.618C42.3906 65.288 41.7866 64.847 40.5906 65.846" fill="#2A518A"/>
<path d="M44.3711 84.232C43.7511 85.469 44.4511 86.988 45.5291 86.746C45.9101 86.661 46.5191 86.468 46.6471 86.18C46.9195 85.7009 47.0595 85.158 47.0529 84.6069C47.0462 84.0558 46.893 83.5164 46.6091 83.044C46.0771 82.49 44.9421 83.093 44.3701 84.233" fill="#2A518A"/>
<path d="M82.0549 67.808C81.892 68.1713 81.8052 68.5641 81.7996 68.9622C81.7941 69.3603 81.8701 69.7553 82.0229 70.123C84.3229 78.767 86.0329 90.039 82.9299 98.681C82.212 100.706 81.1951 102.613 79.9129 104.337C77.7409 107.104 75.1113 109.48 72.1379 111.36C69.663 112.862 66.9351 113.9 64.0879 114.423C60.812 114.728 57.5172 114.775 54.2339 114.564C53.5339 114.443 53.4809 113.897 51.9869 111.287C50.3339 108.398 49.7719 107.896 48.7599 108.402C47.7179 108.923 47.7929 109.961 49.1039 113.184C50.5909 116.84 50.7269 117.33 50.9039 119.684C50.9834 120.971 51.3537 122.224 51.9869 123.347C52.4614 124.078 52.7469 124.916 52.818 125.785C52.889 126.654 52.7433 127.526 52.3939 128.325C52.1558 129.07 51.7253 129.739 51.1458 130.264C50.5664 130.79 49.8586 131.153 49.0939 131.317C48.1135 131.465 47.23 131.991 46.6319 132.782C45.9016 133.629 44.9877 134.298 43.9597 134.738C42.9317 135.178 41.8168 135.378 40.6999 135.322C39.7976 135.272 38.8932 135.367 38.0209 135.603C37.4068 135.769 36.7526 135.698 36.1889 135.403C35.8589 135.16 36.1249 134.613 34.8459 134.695C33.6459 134.771 33.5149 134.261 33.6269 133.756C33.7129 133.37 34.1739 132.956 34.9829 132.556C37.0021 131.526 38.761 130.05 40.1269 128.241C41.4669 126.555 41.6049 126.231 41.5749 124.814C41.5429 123.268 41.5249 123.226 39.9909 121.222C38.146 118.807 36.7288 116.094 35.8009 113.2C35.0175 110.391 35.0141 107.422 35.7909 104.611C36.1031 103.199 36.714 101.871 37.5825 100.716C38.451 99.5599 39.5569 98.6036 40.8259 97.911C44.8256 95.7904 49.2964 94.7151 53.8229 94.785C55.8005 94.7458 57.7777 94.8834 59.7309 95.196C60.6081 95.3876 61.5079 95.455 62.4039 95.396C63.7609 95.236 64.2519 94.451 63.8039 93.352C63.3559 92.253 62.6759 92.282 60.6969 91.778C56.1915 90.9758 51.5776 91.0026 47.0819 91.857C41.9189 93.057 36.1479 95.336 33.4819 100.273C29.4049 107.821 32.1629 116.788 36.9739 123.259L38.2419 124.907L36.8139 126.516C35.7131 127.713 34.4446 128.745 33.0479 129.578C30.3119 131.278 29.7369 132.031 29.8319 133.933C29.9189 135.698 31.0319 136.69 33.6029 136.911C33.9539 136.941 33.4779 138.162 34.8389 138.501C36.1169 138.819 36.6459 139.33 38.4079 139.326C39.0883 139.192 39.778 139.111 40.4709 139.084C43.2355 139.166 45.9329 138.223 48.0439 136.436C49.0491 135.656 50.1294 134.977 51.2689 134.41C52.4626 133.883 53.539 133.122 54.4349 132.173C55.3377 130.929 55.9904 129.521 56.3569 128.028C56.8004 125.807 56.4132 123.501 55.2689 121.547C54.7924 120.535 54.5283 119.435 54.4929 118.317C55.7444 118.204 57.0027 118.186 58.2569 118.265C61.7128 118.504 65.1824 118.073 68.4749 116.996C77.0969 114.373 84.2949 106.796 86.9639 98.272C87.1775 97.5579 87.3511 96.8325 87.4839 96.099C88.1773 92.2139 88.3685 88.2558 88.0529 84.322C87.754 79.5431 87.006 74.8028 85.8189 70.164C85.5921 69.1619 85.116 68.2332 84.4349 67.464C84.2728 67.3244 84.084 67.2191 83.88 67.1547C83.676 67.0903 83.4611 67.068 83.2482 67.0892C83.0353 67.1104 82.829 67.1747 82.6417 67.2782C82.4544 67.3816 82.2902 67.5221 82.1589 67.691C82.1233 67.7315 82.0899 67.7739 82.0589 67.818" fill="#2A518A"/>
</g>
</svg>
