<svg class='w-full' xmlns="http://www.w3.org/2000/svg" xmlns:xlink="http://www.w3.org/1999/xlink" viewBox="0 0 1440 646">
  <defs>
    <clipPath id="clip-path">
      <path id="パス_2142" data-name="パス 2142" d="M0,0H1440V646H0Z" transform="translate(0 2582)" fill="#fff" stroke="#707070" stroke-width="1"/>
    </clipPath>
    <clipPath id="clip-path-2">
      <rect id="長方形_410" data-name="長方形 410" width="1424.253" height="645.513" fill="none"/>
    </clipPath>
  </defs>
  <g id="マスクグループ_37" data-name="マスクグループ 37" transform="translate(0 -2582)" clip-path="url(#clip-path)">
    <g id="グループ_470" data-name="グループ 470" transform="translate(81.054 2582.187)">
      <g id="グループ_469" data-name="グループ 469" transform="translate(0)" clip-path="url(#clip-path-2)">
        <path id="パス_1651" data-name="パス 1651" d="M84.642.241C72.625,1.476,62.09,7.47,53.8,16.081a84.687,84.687,0,0,0-8.771,10.883C35.484,40.889,27.785,56.4,25.629,73.309a56.035,56.035,0,0,0,.547,18.275,34.911,34.911,0,0,0,9.012,17.1c3.58,3.752,6.225,5.582,7.833,5.42,1.426-.143,1.649-.49,2.26-3.507l.462-2.281,1.876,1.776c2.632,2.491,4.894,3.836,9.015,3.7,0,0,2.883-.38,3.766-1.164s-.431-1.311-.775-3.212c-.713-3.94-1.922-9.978-1.887-14.014.007-.791,2.11.333,2.829-1.051a2.181,2.181,0,0,0,.1-2.3c-.411-.784-.5-.828-2.779-1.413C53.238,89.451,51.113,84.6,51.32,80.2a8.362,8.362,0,0,1,2.158-5.7c1.636-1.571,4.91-2.729,6.533-.862,1.107,1.273,2.419,2.887,3.277,2.577.531-.192,1.024-.926,1.363-1.342a32.158,32.158,0,0,0,1.978-2.852,47.087,47.087,0,0,0,4.5-8.382,6.984,6.984,0,0,1,4.447-4.2,21.348,21.348,0,0,0,8.277-5.59,33.9,33.9,0,0,0,6.64-8.921c1.223-2.391,1.956-2.941,2.164-2.318a9.271,9.271,0,0,1-.489,3.4,42.212,42.212,0,0,0-1.159,4.231c-.239,1.38-.637.964-1.634,1.172a7.3,7.3,0,0,0-3.535,1.459,3.813,3.813,0,0,0-1.823,2.9c0,1.14.688,1,1.4,1,.458,0,1.38-.83,2.214-1.246.974-.487,2.658-1,2.534-.208a15.335,15.335,0,0,0-.056,1.785,6.457,6.457,0,0,0,2.465,5.466,10.471,10.471,0,0,0,5.629,2.558c1.523.182,2.2.788,2.555-.8.5-2.263.831-6.937,3.184-8.758,1.041-.8,1.424-.2.739,1.124-1,1.926-.887,5.351-.244,7.347a9.9,9.9,0,0,0,7.452,6.25c2,.229,2.45-.242,2.752-2.89a17.575,17.575,0,0,1,2.027-6.188c.623-.914,1.512-1.579,1.453-.872s-.291,1.869-.291,1.869a28,28,0,0,0-.372,7.509c.348,1.845,2.192,4.437,4.29,6.028a17.089,17.089,0,0,1,2.811,2.414c.893,2.767-2.185,6.5-3.326,8.831-1.712,3.5-3.575,7.715-4.116,9.326-1.646,4.9-4.076,9.183-8.253,12.358a47.147,47.147,0,0,1-16.939,8.031,12.939,12.939,0,0,1-10.7-1.787,66.622,66.622,0,0,1-15.516-12.458c-1.024-1.14-1.658-1.545-2.418-1.545-2.3,0-2.363,1.839-.17,5.187,1.682,2.567,3,3.932,6.389,6.6,2.428,1.91,11.939,8.072,12.472,8.081a22.318,22.318,0,0,1,.294,4.381l.074,4.378-2.465.5a58.181,58.181,0,0,1-8.793.5c-5.96,0-6.347.043-6.66.736-.435.962-.87,2.166.344,3.122.89.7,2.343.739,6.169.729,4.3-.012,10-.468,11.111-.891.509-.194.674.057.887,1.345a10.051,10.051,0,0,0,4.337,7.07,106.715,106.715,0,0,0,10.927,4.022c3.629,1.2,7.474,2.257,10.869,4.049a20.7,20.7,0,0,1,9.689,10.468c.763,1.956,1.41,3.962,1.992,5.979a17.173,17.173,0,0,1,1,4.5v1.471l-.92-.993c-1.206-1.3-3.544-1.82-4.327-.423-.51.911.008,1.71.658,2.925,1.131,2.115,3.229,4.36,7.46,7.982,4.488,3.843,12.055,11.489,13.764,13.908,5.624,7.963,4.339,19.1.262,27.372-1.4,2.833-1.473,4.6.011,7.131.6,1.03,2.935,4.79,3.512,5.82.565,1.008,1.71,2.869,2.536,4.12,1.651,2.5,2.85,3.682,4.642,2.522.6-.39.636-1.714.288-2.829-.544-1.746-3.445-6.7-6.547-11.129-1.184-1.691-1.163-1.828.535-5.434,3.411-7.247,4.505-16.221,1.457-24.1-2.271-5.872-6.594-10.46-10.969-14.747-5.629-5.516-6.667-6.839-6.808-7.668-.444-2.6-.639-5.411-.976-7.14a82.324,82.324,0,0,0-3.909-12.472c-4.522-10.595-16.663-13.385-26.476-16.965q-2.954-1.078-5.913-2.136a9.928,9.928,0,0,1-1.332-1.244c-1.072-1.235-1.411-2.98-1.871-9.638-.2-2.87-.214-5.353-.176-5.678.11-.941,1.272-.525,2.326-.72a5.684,5.684,0,0,1,2.271-.221c1.667,1.216,5.076,4.274,9.914,4.043,1.785-.085,2.548-.111,2.194,1.288-.262,1.037-.92,2.921,2.612,2.171a20.33,20.33,0,0,0,6.217-2.862c4.963-3.574,9.033-9.15,12.2-14.3,8.982-14.634,12.39-32.255,13.174-49.213a74.177,74.177,0,0,0,.013-11.617c-1.316-11.843-4.673-24.238-12.55-33.49a45.76,45.76,0,0,0-4.383-4.466A53.066,53.066,0,0,0,105,2.9,43.8,43.8,0,0,0,84.642.241" transform="translate(-6.265 0)" fill="#2a518a"/>
        <path id="パス_1652" data-name="パス 1652" d="M107.314,94.118a4.862,4.862,0,0,0-.369,7.4,3.2,3.2,0,0,0,2.313.762,4.919,4.919,0,0,0,4.2-5.537,3.671,3.671,0,0,0-4.693-3.407,5.3,5.3,0,0,0-1.453.782" transform="translate(-26.277 -23.23)" fill="#2a518a"/>
        <path id="パス_1653" data-name="パス 1653" d="M137.673,106.736a5.833,5.833,0,0,0-2.107,4.448,3.326,3.326,0,0,0,2.7,3.737c2.859.423,4.3-1.735,4.935-3.522,1.017-2.859-.656-5.966-3.971-5.323a3.966,3.966,0,0,0-1.556.66" transform="translate(-33.792 -26.422)" fill="#2a518a"/>
        <path id="パス_1654" data-name="パス 1654" d="M121.165,123.706a1.3,1.3,0,0,0,1.31,1.806c.876-.059,1.662-.291,1.854-.813.29-.79-.147-.953-1.73-1.308-.92-.207-1.267-.131-1.435.315" transform="translate(-30.181 -30.732)" fill="#2a518a"/>
        <path id="パス_1655" data-name="パス 1655" d="M106.2,131.937c-1.242,1.242-.58,3.518,2.7,5.138a7.717,7.717,0,0,0,4.553.906c.886-.224,1.5-.743,1.5-1.519,0-.709-.2-1.152-1.8-1.655a9.442,9.442,0,0,1-4.4-2.686,1.841,1.841,0,0,0-2.555-.184" transform="translate(-26.329 -32.782)" fill="#2a518a"/>
        <path id="パス_1656" data-name="パス 1656" d="M50.654,155.713a1.774,1.774,0,0,0-.244.237,4.341,4.341,0,0,0-.667,2.935,178.487,178.487,0,0,1-.389,19.288,3.583,3.583,0,0,1-.571,1.926,3.5,3.5,0,0,1-1.318.9c-4.256,2-8.823,3.241-13.179,5.01a43.224,43.224,0,0,0-12.555,7.553,33.493,33.493,0,0,0-9.008,13.942c-.3.818-.97,2.5-1.5,3.79-2.227,5.4-5.242,19.645-6.632,31.345C1.091,272.08.283,285.428.058,317.436c-.126,17.954-.1,18.766.645,21.67,1.727,6.714,2.72,7.7,12.69,12.607,6.283,3.091,12.707,5.881,19.149,8.619C49.7,367.621,67.3,373.7,84.582,380.611A26.213,26.213,0,0,1,91.94,384.2c2.508,1.711,11.626,5.9,15.673,7.2,5.675,1.823,7.726,2.113,16.592,2.35a71.189,71.189,0,0,0,9.254-.563,4.432,4.432,0,0,0,3.383-2.209,5.2,5.2,0,0,1,2.1-1.945c2.2-.83,3.324-2.935,3.9-3.78s1.188-.8,2.292-1.513c3.2-2.058,3.688-4.007,2.194-5.923-.373-.478-.909-.806-1.039-1.2s.767-2.049-.207-3.115c-1.513-1.656-6.272-2.617-9.6-3.323-6.416-1.363-10.3-2.243-14.751-3.2-.311-.067.074-.52.92-1.2,2.649-2.131,5.4-4.826,5.908-5.843,1.526-3.045.112-5.814-1.824-5.814a19.674,19.674,0,0,0-3.937,1.248,69.34,69.34,0,0,1-15.3,3.678,24.3,24.3,0,0,0-8.406,2.4s-3.534,1.544-4.061,1.76-1.587-.694-1.587-.694c-.736-.45-4.636-2.894-4.865-3.031-15.233-9.106-22.423-14.687-28.108-17.834-1.046-.58-.52-1.052-.055-2.153l.658-1.559c1.312-3.106,2.834-6.405,2.905-9.838.073-3.542-1.382-7.161-2.373-10.507A172.633,172.633,0,0,0,50,289.346c-.381-.692-1.155-2.189-1.7-3.293-1.968-3.974-3.349-5.817-4.553-6.081-2.171-.477-3.356,1.841-1.963,3.838,2.64,3.779,4.685,8.33,6.655,12.46a185.468,185.468,0,0,1,10.542,29.086c.953,3.336-.166,5.317-1.926,9.556-.257.619-.894,1.527-1.149,2.189s-.566,1.2-.7,1.2a26.313,26.313,0,0,1-2.98-1.655c-1.509-.911-4.856-2.514-6.733-3.569s-6.125-3.348-9.473-5.114l-5.285-3.333a1.478,1.478,0,0,1-.639-1.559c1.986-9.232,2.893-15.274,4.532-23.063l7.765-37.287c.962-4.568,1.591-8.8,2.215-13.43.61-4.516-.094-4.458-.7-4.871a1.774,1.774,0,0,0-2.248.513,5.172,5.172,0,0,0-.891,2.341q-3.688,18.242-7.443,36.47c-2.418,11.749-4.907,24.9-7.166,36.687-.775,4.043-.986,5.428-.288,6.759.39.745,1.79,1.686,5.065,3.4,2.5,1.312,5.183,2.645,6,2.98s2.752,1.393,4.263,2.089c2.348,1.081,3.685,1.7,2.691,2.57a19.842,19.842,0,0,0-4.736,6.8c-1.83,4.01-2.321,6-2.067,8.351,0,0,.209,2.493,1.76,2.715s1.938-.838,2.679-4c.947-4.047,4.121-9.816,6.375-11.593l.883-.7,3.275,1.762c14.352,7.72,26.34,15.754,40.068,24.664.525.34,2.2,2.16,6.729-.374a39.239,39.239,0,0,1,10.852-3.289,60.076,60.076,0,0,0,11.911-2.984s3.573-1.453,3.157-.456a4.416,4.416,0,0,1-2.409,2.575,41,41,0,0,1-7.8,3.633c-1.251.376-1.487.6-1.576,1.51-.158,1.6.694,2.129,5.256,3.242,2.244.548,5.353,1.288,6.491,1.5,3.115.582,16.435,3.148,17.073,3.656.257.2,1.038.83-.416,1.246-.3.085-6.077-.808-12.294-1.809-4.084-.658-4.62-.676-5.114-.165-.429.444-.474.791-.2,1.564.3.841,4.27,1.535,4.484,1.573,3.24.582,5.359.748,10.011,1.579,2.784.5,4.86.581,4.694,1.329-.248,1.116-2.6,1.218-12.379.042-6.564-.79-7.8-.953-8.591-.071-.331.368-.8,1.774,1.468,2.281.551.123,3.275.316,6,.7s5.964.824,7.175.975c2.023.253,1.693.977.682,1.267-1.09.313-8.592-.509-14.331-.95-2.428-.186-3.029-.122-3.435.363-1.288,1.541,1.131,1.962,9.666,2.829,4.9.5,4.279,1.094,3.281,1.62-.813.429-4.638.621-9.09.443-3.053-.122-6.609-.4-7.928-.622-4.676-.787-14.679-4.727-19.867-7.826a65.535,65.535,0,0,0-12.546-6.12c-8.332-3.126-16.68-6.211-24.981-9.419-9.9-3.829-19.633-8.09-29.291-12.5-5.717-2.612-11.451-5.1-17.017-7.97-2.407-1.24-4.53-2.438-5.669-4.985-1.694-3.789-1.8-5.3-1.646-23.657.256-30.646,1.1-44.244,4.54-73.213,1.39-11.7,4.4-25.918,6.627-31.345,1.77-4.307,3.617-8.9,6.284-12.739,2.91-4.19,8.363-6.873,12.916-8.793,3.215-1.357,6.522-2.473,9.774-3.733,2.723-1.055,6.475-1.97,8.226-4.483,1.246-1.79,1.3-4.121,1.315-6.3q.051-9.036.1-18.072A4.324,4.324,0,0,0,54,156.444a2.281,2.281,0,0,0-3.342-.731" transform="translate(0 -38.707)" fill="#2a518a"/>
        <path id="パス_1657" data-name="パス 1657" d="M190.782,325.236c-5.608,2.866-8.145,6.244-9.281,8.452-.928,1.8-1.228,3.926.89,4.965.531.261.54.8.54,1.5,0,1.41.98,3.011,2.451,3.074,2.5.107,2.03-.066,2.03.841,0,1.549,1.14,2.505,3.238,2.715,1.8.18,1.42-.064,1.42.89a2.508,2.508,0,0,0,.789,2.2c1.11.937,2.206,1.1,4.633.869a17.73,17.73,0,0,0,7.33-2.7c1.54-.9,2.783-1.64,2.783-4.694a3.984,3.984,0,0,0-1.062-2.926c-.561-.5-1.287-.5-.807-1.893a3.819,3.819,0,0,0-.831-3.2,2.5,2.5,0,0,1-.706-1.661,5.031,5.031,0,0,0-3.175-4.653,1.914,1.914,0,0,1-.895-1.435c-.29-1.514-1.423-2.6-3.483-3.338-1.876-.672-3.429-.252-5.865.993m5.644,2.712c.775.776.462,1.525-.618,1.9A48.627,48.627,0,0,0,187,334.666c-1.947,1.549-3,.646-1.7-1.039a16.681,16.681,0,0,1,6.522-5.234c2.832-1.4,3.764-1.285,4.6-.444M200,332.132c.664.872.083,1.994-1.994,2.659a31.059,31.059,0,0,0-4.969,2.117c-3.712,1.953-4.853,2.305-5.426,2.447-.977.24-1.456-.306.052-1.656a24.7,24.7,0,0,1,7.352-4.652c1.324-.573,4.32-1.787,4.985-.914m2.492,5.733c0,1.131-.956,1.712-2.907,2.57-1.14.5-2.3,1.083-2.612,1.267-3.537,2.061-5.869,2.29-6.071,1.605s3.5-2.9,6.034-4.3c4.558-2.512,5.555-1.4,5.555-1.141m.125,7.352a42.751,42.751,0,0,1-5.234,2.326c-2,.758-3.085.834-.748-1.329a10.783,10.783,0,0,1,2.492-1.745c.831-.457,3.973-2.01,4.395-1.252.257.463.8.92-.905,2" transform="translate(-45.069 -80.75)" fill="#2a518a"/>
        <path id="パス_1658" data-name="パス 1658" d="M46.822,441.436a6.325,6.325,0,0,0-1.764,2.288c-11.069,22.648-18.338,50.223-21.494,67.337s-3.779,26.622-3.968,36.78q-.163,8.776.48,17.541a39.837,39.837,0,0,0,.513,4.176c.876,4.82.976,5.053,2.278,5.335a2.277,2.277,0,0,0,2.757-1.251,23.754,23.754,0,0,0-.587-5.059c-.7-3.766-.83-6.089-.967-17.052-.336-26.947,6.208-52.334,14.463-77.753,3.085-9.5,6.156-18.865,10.631-27.816a6.774,6.774,0,0,0,.806-2.609,2.308,2.308,0,0,0-1.274-2.245,1.908,1.908,0,0,0-1.875.33" transform="translate(-4.877 -109.931)" fill="#2a518a"/>
        <path id="パス_1659" data-name="パス 1659" d="M216.508,365.383c35.521,35.759,48.332,70.288,47.263,123.745C261.652,595.028,298.58,667.1,404.789,667.1c59.207,0,140.906-67.963,267.253-55.052,87.712,8.962,119.764,37.872,157.337,65.427C886.823,719.6,932.447,731,998.491,733.749c156.643,6.527,245.094-71.657,315.161-115.7s108.264-44.207,162.11-44.207,92.479,37.091,169.24,70.664,219.229,52.922,305.1,0" transform="translate(-53.972 -91.085)" fill="none" stroke="#fff" stroke-linecap="round" stroke-miterlimit="10" stroke-width="5"/>
      </g>
    </g>
  </g>
</svg>
