<svg id="グループ_350" data-name="グループ 350" xmlns="http://www.w3.org/2000/svg" xmlns:xlink="http://www.w3.org/1999/xlink" width="42.034" height="42.034" viewBox="0 0 42.034 42.034">
  <defs>
    <clipPath id="clip-path">
      <rect id="長方形_127" data-name="長方形 127" width="42.034" height="42.034" fill="none"/>
    </clipPath>
  </defs>
  <g id="グループ_120" data-name="グループ 120" transform="translate(0)" clip-path="url(#clip-path)">
    <path id="パス_436" data-name="パス 436" d="M21.017,42.034A21.017,21.017,0,1,1,42.034,21.017,21.017,21.017,0,0,1,21.017,42.034" fill="#ff6041"/>
    <path id="パス_437" data-name="パス 437" d="M42.247,37.455a.8.8,0,0,1,.878.807.828.828,0,0,1-.9.829c-1.3,0-2.679-.048-4.007-.048a.125.125,0,0,0-.142.142c0,1.185.024,2.489.024,3.628a.92.92,0,0,1-.948.948.932.932,0,0,1-.972-.972V39.162c0-.095-.047-.119-.142-.119-1.588,0-3.106,0-4.292.048a.756.756,0,0,1-.853-.806.808.808,0,0,1,.829-.83h.024c.878.024,2.514.024,4.268.024.119,0,.166-.024.166-.142V36.72c-.023-.522-.664-1.47-.972-1.47-1.257,0-2.466,0-3.462.048a.749.749,0,0,1-.853-.783.8.8,0,0,1,.829-.829h.024c.569.023,1.47.047,2.466.047.071,0,.119,0,.119-.047a.184.184,0,0,0-.024-.071c-1.446-2.2-3.059-4.6-3.912-5.9a1.028,1.028,0,0,1-.19-.593.931.931,0,0,1,1.755-.4c.949,1.66,2.8,4.457,4.434,6.9.071.095.095.095.213.119h1.067c.118,0,.142-.047.189-.119a78.246,78.246,0,0,0,4.386-6.923.862.862,0,0,1,.759-.474,1.034,1.034,0,0,1,1.02.972c0,.284-.19.687-4.031,6.4-.024.047-.048.071-.048.095s.024.023.095.023c.853,0,1.636-.023,2.182-.023h.023a.787.787,0,0,1,.878.782.843.843,0,0,1-.9.83c-.664,0-2.585-.048-3.2-.048a2.049,2.049,0,0,0-.949,1.494v.616c0,.095.048.119.142.119,1.588,0,3.082,0,4.007-.024Z" transform="translate(-16.096 -13.972)" fill="#fff"/>
  </g>
</svg>
