<svg id="グループ_352" data-name="グループ 352" xmlns="http://www.w3.org/2000/svg" xmlns:xlink="http://www.w3.org/1999/xlink" width="42.034" height="42.034" viewBox="0 0 42.034 42.034">
  <defs>
    <clipPath id="clip-path">
      <rect id="長方形_128" data-name="長方形 128" width="42.034" height="42.034" fill="none"/>
    </clipPath>
  </defs>
  <g id="グループ_123" data-name="グループ 123" clip-path="url(#clip-path)">
    <path id="パス_438" data-name="パス 438" d="M21.017,42.034A21.017,21.017,0,1,1,42.034,21.017,21.017,21.017,0,0,1,21.017,42.034" fill="#ff6041"/>
    <path id="パス_439" data-name="パス 439" d="M38.6,38.855a3.871,3.871,0,0,1,1.389-3.011A11.537,11.537,0,0,0,42.3,33.366a4.714,4.714,0,0,0,.6-2.293,3.027,3.027,0,0,0-3.173-3.2,3.38,3.38,0,0,0-3.358,2.5c-.047.208-.325.324-.625.324a.649.649,0,0,1-.718-.649A4.683,4.683,0,0,1,39.8,26.58a4.315,4.315,0,0,1,4.54,4.448,5.942,5.942,0,0,1-.463,2.27c-.649,1.6-2.432,2.825-3.2,3.728a2.709,2.709,0,0,0-.648,1.761.772.772,0,0,1-.787.811.661.661,0,0,1-.648-.742m.671,5.628a1.119,1.119,0,0,1-1.112-1.065,1.144,1.144,0,0,1,1.112-1.181,1.1,1.1,0,0,1,1.158,1.112,1.119,1.119,0,0,1-1.158,1.135" transform="translate(-18.67 -14.166)" fill="#fff"/>
  </g>
</svg>
