<svg id="グループ_346" data-name="グループ 346" xmlns="http://www.w3.org/2000/svg" xmlns:xlink="http://www.w3.org/1999/xlink" width="42.034" height="42.034" viewBox="0 0 42.034 42.034">
  <defs>
    <clipPath id="clip-path">
      <rect id="長方形_199" data-name="長方形 199" width="42.034" height="42.034" fill="none"/>
    </clipPath>
  </defs>
  <g id="グループ_219" data-name="グループ 219" clip-path="url(#clip-path)">
    <path id="パス_774" data-name="パス 774" d="M21.017,42.034A21.017,21.017,0,1,1,42.034,21.017,21.017,21.017,0,0,1,21.017,42.034" fill="#ff6041"/>
    <ellipse id="楕円形_34" data-name="楕円形 34" cx="4.054" cy="4.054" rx="4.054" ry="4.054" transform="translate(9.84 11.936)" fill="none" stroke="#fff" stroke-linecap="round" stroke-linejoin="round" stroke-width="1.4"/>
    <path id="パス_775" data-name="パス 775" d="M18.917,55.241V51.891a5.059,5.059,0,1,1,10.119,0v3.351" transform="translate(-10.082 -24.959)" fill="none" stroke="#fff" stroke-linecap="round" stroke-linejoin="round" stroke-width="1.4"/>
    <path id="パス_776" data-name="パス 776" d="M59.678,29.611a4.054,4.054,0,1,1-4.054-4.054A4.054,4.054,0,0,1,59.678,29.611Z" transform="translate(-27.485 -13.621)" fill="none" stroke="#fff" stroke-linecap="round" stroke-linejoin="round" stroke-width="1.4"/>
    <path id="パス_777" data-name="パス 777" d="M49.417,55.241V51.891a5.059,5.059,0,1,1,10.119,0v3.351" transform="translate(-26.337 -24.959)" fill="none" stroke="#fff" stroke-linecap="round" stroke-linejoin="round" stroke-width="1.4"/>
  </g>
</svg>
