<svg xmlns="http://www.w3.org/2000/svg" width="40.666" height="28.718" viewBox="0 0 40.666 28.718">
  <g id="グループ_521" data-name="グループ 521" transform="translate(-21.606 -20.481)">
    <path id="パス_1042" data-name="パス 1042" d="M23.407,46.98a.782.782,0,0,0,.782.783.753.753,0,0,0,.123-.01,41.918,41.918,0,0,1,6.736-.557,42.827,42.827,0,0,1,11.6,1.586V23.846A43.1,43.1,0,0,0,24.058,22.83a.785.785,0,0,0-.651.775Z" transform="translate(-0.71 -0.675)" fill="none" stroke="#fff" stroke-linecap="round" stroke-linejoin="round" stroke-width="2.181"/>
    <path id="パス_1043" data-name="パス 1043" d="M62.494,46.98a.782.782,0,0,1-.782.783.753.753,0,0,1-.123-.01,41.918,41.918,0,0,0-6.736-.557,42.827,42.827,0,0,0-11.6,1.586V23.846a43.1,43.1,0,0,1,18.6-1.016.785.785,0,0,1,.646.775Z" transform="translate(-1.312 -0.675)" fill="none" stroke="#fff" stroke-linecap="round" stroke-linejoin="round" stroke-width="2.181"/>
  </g>
</svg>
