<svg id="グループ_371" data-name="グループ 371" xmlns="http://www.w3.org/2000/svg" xmlns:xlink="http://www.w3.org/1999/xlink" width="43.287" height="34.693" viewBox="0 0 43.287 34.693">
  <defs>
    <clipPath id="clip-path">
      <rect id="長方形_317" data-name="長方形 317" width="43.287" height="34.693" fill="none"/>
    </clipPath>
  </defs>
  <g id="グループ_370" data-name="グループ 370" clip-path="url(#clip-path)">
    <path id="パス_1065" data-name="パス 1065" d="M23.95,228.959H51.088a2.493,2.493,0,0,1,2.492,2.492v16.671a2.494,2.494,0,0,1-2.492,2.493H33.908l-9.1,6.608,1.508-6.61H23.95a2.493,2.493,0,0,1-2.492-2.488V231.451a2.493,2.493,0,0,1,2.492-2.492" transform="translate(-20.947 -228.449)" fill="#fff"/>
    <path id="パス_1066" data-name="パス 1066" d="M23.95,228.959H51.088a2.493,2.493,0,0,1,2.492,2.492v16.671a2.494,2.494,0,0,1-2.492,2.493H33.908l-9.1,6.608,1.508-6.61H23.95a2.493,2.493,0,0,1-2.492-2.488V231.451A2.493,2.493,0,0,1,23.95,228.959Z" transform="translate(-20.947 -228.449)" fill="none" stroke="#fff" stroke-linejoin="round" stroke-width="1.756"/>
    <path id="パス_1067" data-name="パス 1067" d="M61.548,234.53H34.41a2.494,2.494,0,0,0-2.492,2.492v16.671a2.5,2.5,0,0,0,2.492,2.493H51.592l9.1,6.609-1.508-6.609h2.364a2.494,2.494,0,0,0,2.492-2.493V237.022a2.493,2.493,0,0,0-2.492-2.492" transform="translate(-21.264 -228.618)" fill="#2a518a"/>
    <path id="パス_1068" data-name="パス 1068" d="M61.548,234.53H34.41a2.494,2.494,0,0,0-2.492,2.492v16.671a2.5,2.5,0,0,0,2.492,2.493H51.592l9.1,6.609-1.508-6.609h2.364a2.494,2.494,0,0,0,2.492-2.493V237.022A2.493,2.493,0,0,0,61.548,234.53Z" transform="translate(-21.264 -228.618)" fill="none" stroke="#fff" stroke-linejoin="round" stroke-width="1.756"/>
    <path id="パス_1069" data-name="パス 1069" d="M41.893,245.633a2.1,2.1,0,1,1-2.1-2.1,2.1,2.1,0,0,1,2.1,2.1" transform="translate(-21.44 -228.891)" fill="#fff"/>
    <path id="パス_1070" data-name="パス 1070" d="M50.512,245.633a2.1,2.1,0,1,1-2.1-2.1h0a2.1,2.1,0,0,1,2.1,2.1" transform="translate(-21.701 -228.891)" fill="#fff"/>
    <path id="パス_1071" data-name="パス 1071" d="M59.132,245.633a2.1,2.1,0,1,1-2.1-2.1,2.1,2.1,0,0,1,2.1,2.1" transform="translate(-21.963 -228.891)" fill="#fff"/>
  </g>
</svg>
