<svg xmlns="http://www.w3.org/2000/svg" xmlns:xlink="http://www.w3.org/1999/xlink" width="187" height="42.081" viewBox="0 0 187 42.081">
  <defs>
    <clipPath id="clip-path">
      <rect id="長方形_259" data-name="長方形 259" width="187" height="42.081" fill="none"/>
    </clipPath>
  </defs>
  <g id="グループ_296" data-name="グループ 296" clip-path="url(#clip-path)">
    <path id="パス_950" data-name="パス 950" d="M23.877,38.366c-2.594.266-2.827.466-2.827,3.226V54.329c0,2.76.266,2.96,2.827,3.192v1.231H13.6V57.521c2.628-.332,2.828-.432,2.828-3.192V48.077H7.449v6.252c0,2.76.3,2.926,2.794,3.192v1.231H0V57.521c2.461-.266,2.827-.432,2.827-3.192V41.592c0-2.76-.3-3.026-2.827-3.226v-1.23H10.243v1.23c-2.528.233-2.794.466-2.794,3.226v4.756h8.979V41.592c0-2.76-.333-2.959-2.828-3.226v-1.23H23.877Z" transform="translate(0 -17.169)" fill="#284f80"/>
    <path id="パス_951" data-name="パス 951" d="M63.6,36.27A10.839,10.839,0,0,1,74.769,47.311c0,7.083-5.055,11.54-11.34,11.54A11.065,11.065,0,0,1,51.956,47.577c0-5.686,4.057-11.307,11.64-11.307m-.5,1.464c-3.392,0-5.886,3.326-5.886,9.211,0,5.62,2.228,10.442,6.717,10.442,3.16,0,5.621-3.06,5.621-9.145,0-6.584-2.594-10.508-6.452-10.508" transform="translate(-24.02 -16.769)" fill="#284f80"/>
    <path id="パス_952" data-name="パス 952" d="M111.995,37.136A10.916,10.916,0,0,1,117.98,38.5a5.571,5.571,0,0,1,2.594,4.988c0,4.822-4.09,6.851-7.648,6.884a8.44,8.44,0,0,1-1-.066l-1.929-.5v4.523c0,2.793.233,2.926,3.126,3.192v1.231H102.55V57.522c2.494-.3,2.827-.4,2.827-3.192v-12.7c0-2.793-.332-3.093-2.827-3.259V37.136Zm-2,11.273a4.264,4.264,0,0,0,1.763.333c1.53,0,4.023-.9,4.023-5.288,0-3.724-2.029-4.955-4.19-4.955a2.029,2.029,0,0,0-1.3.333,1.282,1.282,0,0,0-.3,1.031Z" transform="translate(-47.411 -17.169)" fill="#284f80"/>
    <path id="パス_953" data-name="パス 953" d="M160.236,53.041c-.167.9-1.1,4.722-1.4,5.653H141.58V57.5c3.026-.3,3.226-.466,3.226-3.259v-12.7c0-2.827-.4-3.027-2.661-3.226v-1.23h10.808c3.492,0,4.656-.033,5.122-.067.033.6.2,3.326.332,5.387l-1.3.167a8.364,8.364,0,0,0-1.43-3.093c-.6-.665-1.031-.865-2.727-.865h-2.161c-1.264,0-1.4.066-1.4,1.2v6.95h3.259c1.861,0,2.195-.5,2.693-2.859h1.3v7.415h-1.3c-.532-2.46-.8-2.859-2.727-2.859h-3.226v5.72c0,2.295.066,2.993,2.128,3.026h2.361c1.863,0,2.361-.233,3.093-1.131a14.8,14.8,0,0,0,2.029-3.326Z" transform="translate(-65.456 -17.112)" fill="#284f80"/>
    <path id="パス_954" data-name="パス 954" d="M206.237,52.631a47.127,47.127,0,0,1-1.862,5.354,28.56,28.56,0,0,1-6.119.864c-8.946,0-12.637-5.753-12.637-11.041,0-6.883,5.254-11.54,13.235-11.54a35.245,35.245,0,0,1,6.286.8c.166,1.563.4,4.024.632,5.487l-1.331.233c-.7-2.594-1.7-3.825-3.458-4.523a8.378,8.378,0,0,0-2.893-.466c-4.822,0-7.25,4.024-7.25,9.245,0,6.086,3.126,10.209,7.682,10.209,2.793,0,4.656-1.463,6.452-5.121Z" transform="translate(-85.816 -16.768)" fill="#284f80"/>
    <path id="パス_955" data-name="パス 955" d="M250.354,53.041c-.166.9-1.1,4.722-1.4,5.653H231.7V57.5c3.027-.3,3.226-.466,3.226-3.259v-12.7c0-2.827-.4-3.027-2.66-3.226v-1.23h10.808c3.492,0,4.656-.033,5.121-.067.033.6.2,3.326.333,5.387l-1.3.167a8.381,8.381,0,0,0-1.43-3.093c-.6-.665-1.031-.865-2.727-.865H240.91c-1.265,0-1.4.066-1.4,1.2v6.95h3.259c1.862,0,2.195-.5,2.693-2.859h1.3v7.415h-1.3c-.532-2.46-.8-2.859-2.727-2.859h-3.226v5.72c0,2.295.067,2.993,2.129,3.026H244c1.862,0,2.36-.233,3.093-1.131a14.848,14.848,0,0,0,2.028-3.326Z" transform="translate(-107.119 -17.112)" fill="#284f80"/>
    <path id="パス_956" data-name="パス 956" d="M291.686,52.9c-.266,1.43-1.2,4.955-1.5,5.853H273.7v-1.23c2.926-.2,3.192-.432,3.192-3.226V41.626c0-2.793-.332-3.059-2.827-3.259v-1.23h10.376v1.23c-2.594.233-2.927.466-2.927,3.259v12.9c0,1.829.067,2.66,1.9,2.694.067.033,1.6.033,1.73.033,1.9,0,2.395-.4,3.192-1.3a13.87,13.87,0,0,0,2.1-3.458Z" transform="translate(-126.535 -17.169)" fill="#284f80"/>
    <path id="パス_957" data-name="パス 957" d="M332.322,52.9c-.266,1.43-1.2,4.955-1.5,5.853H314.331v-1.23c2.927-.2,3.193-.432,3.193-3.226V41.626c0-2.793-.333-3.059-2.827-3.259v-1.23h10.376v1.23c-2.594.233-2.926.466-2.926,3.259v12.9c0,1.829.066,2.66,1.9,2.694.066.033,1.6.033,1.73.033,1.9,0,2.394-.4,3.192-1.3a13.889,13.889,0,0,0,2.1-3.458Z" transform="translate(-145.322 -17.169)" fill="#284f80"/>
    <path id="パス_958" data-name="パス 958" d="M2.683,5.26c-.213,0-2.142-.1-2.142-.94A.467.467,0,0,1,1,3.832a.7.7,0,0,1,.326.088,2.984,2.984,0,0,0,1.378.338,5.289,5.289,0,0,0,1.253-.175A6.093,6.093,0,0,1,3.1,2.34a.473.473,0,0,1,.5-.475.6.6,0,0,1,.589.463,8.974,8.974,0,0,0,.726,1.466l.677-.25c.175-.075.276-.151.451-.239a.993.993,0,0,1,.388-.1.5.5,0,0,1,.513.513c0,.438-.439.626-1.466,1,.3.476.6.965.89,1.39a4.978,4.978,0,0,1,.939,2.18c0,.426-.238.626-.551.626a1.041,1.041,0,0,1-.589-.2A5.38,5.38,0,0,0,3.8,8.3c-.476,0-2.092.038-2.092.9,0,.639,1.128,1.14,2.718,1.14.138,0,.263,0,.4-.012.075,0,.7-.025.7.538,0,.288-.251.6-.751.6-1.591,0-4.109-.5-4.109-2.281A1.777,1.777,0,0,1,2.27,7.54,8.159,8.159,0,0,1,4,7.377a14.979,14.979,0,0,1,1.6.088h.1c.1,0,.151-.025.151-.1,0-.288-.3-.789-1.3-2.356a7.893,7.893,0,0,1-1.867.251" transform="translate(-0.25 -0.863)" fill="#2a518a"/>
    <path id="パス_959" data-name="パス 959" d="M21.552,7.383c-.038-.6-.063-.852-.063-1.178,0-.212,0-.776.576-.776.451,0,.526.351.526.889,0,.15-.012.263-.012.426,0,3.4,1.328,3.947,1.5,3.947s.426-.113.864-1.1a.477.477,0,0,1,.438-.313.575.575,0,0,1,.577.526c0,.25-.765,2.08-1.917,2.08-1.027,0-2.305-1.453-2.493-4.5m8.256,1.8a4.006,4.006,0,0,0-1.453-2.48.434.434,0,0,1-.2-.351.5.5,0,0,1,.5-.476c.715,0,2.281,2,2.281,3.119a.624.624,0,0,1-.614.652.528.528,0,0,1-.514-.463" transform="translate(-9.935 -2.51)" fill="#2a518a"/>
    <path id="パス_960" data-name="パス 960" d="M54.024,2.243c0,.326-.012.626-.012.777-.025.714-.514,1.039-1.329,1.065-.664.013-1.315.025-1.979.025-.539,0-1.09-.012-1.654-.025-.827-.025-1.2-.363-1.228-1.065,0-.151-.012-.439-.012-.777l-1.779.013a.41.41,0,0,1-.426-.439.407.407,0,0,1,.426-.426H47.81c0-.288.012-.538.012-.676A.477.477,0,0,1,48.775.7v.714h1.642V.477A.469.469,0,0,1,50.9,0a.462.462,0,0,1,.489.476v.939h1.666c0-.325-.013-.613-.013-.714V.69A.424.424,0,0,1,53.51.264a.466.466,0,0,1,.5.438c0,.126.012.376.012.689h1.9a.407.407,0,0,1,.413.439.4.4,0,0,1-.413.426ZM54.876,6.5c0-.526-.025-.765-.715-.776C53.4,5.714,52.42,5.7,51.405,5.7v1.04c.576,0,1.153,0,1.8.012a1.117,1.117,0,0,1,1.252,1.165c0,.276.012.676.012.977,0,.977-.638,1.428-1.566,1.428-1.1,0-1.127-.3-1.127-.539s.15-.5.375-.5a.18.18,0,0,1,.088.013,2.951,2.951,0,0,0,.6.088c.388,0,.614-.163.639-.539V8.031c-.012-.288-.176-.476-.551-.476H51.405l.013,3.094a.508.508,0,0,1-1.015,0l.013-3.094h-1.39c-.564,0-.564.251-.564,1.228,0,.388,0,.814.012,1.128v.013a.466.466,0,0,1-.489.488.5.5,0,0,1-.513-.5c0-.251-.012-.613-.012-.977s.012-.765.012-1.04c.025-.789.488-1.127,1.34-1.14.564-.012,1.078-.012,1.6-.012V5.7c-1.04,0-2.03.013-2.781.025-.639.012-.764.263-.777.589V7.1a.481.481,0,0,1-.513.464.466.466,0,0,1-.5-.476c0-.163-.013-.363-.013-.563s.013-.4.013-.551c.025-.564.438-1.09,1.353-1.1,1.228-.012,2.631-.025,4.009-.025,1.153,0,2.28.013,3.32.025a1.267,1.267,0,0,1,1.39,1.078c.013.188.013.438.013.689,0,.526,0,.965-.552.965a.47.47,0,0,1-.5-.463Zm-4.46-4.272H48.775V2.82c.025.489.163.489,1.642.489Zm.977,0v1.09c1.39,0,1.629,0,1.653-.5,0-.088.013-.313.013-.589Z" transform="translate(-21.084 -0.001)" fill="#2a518a"/>
    <path id="パス_961" data-name="パス 961" d="M74.175,10.352A1.215,1.215,0,1,1,75.39,9.136a1.209,1.209,0,0,1-1.215,1.216" transform="translate(-33.731 -3.662)" fill="#2a518a"/>
    <path id="パス_962" data-name="パス 962" d="M88.43,5.26c-.213,0-2.142-.1-2.142-.94a.467.467,0,0,1,.463-.488.7.7,0,0,1,.325.088,2.988,2.988,0,0,0,1.379.338,5.289,5.289,0,0,0,1.253-.175,6.093,6.093,0,0,1-.864-1.742.473.473,0,0,1,.5-.475.6.6,0,0,1,.589.463,8.973,8.973,0,0,0,.726,1.466l.677-.25c.175-.075.276-.151.451-.239a.993.993,0,0,1,.388-.1.5.5,0,0,1,.514.513c0,.438-.439.626-1.466,1,.3.476.6.965.89,1.39a4.978,4.978,0,0,1,.939,2.18c0,.426-.238.626-.551.626a1.041,1.041,0,0,1-.589-.2A5.38,5.38,0,0,0,89.545,8.3c-.476,0-2.092.038-2.092.9,0,.639,1.128,1.14,2.719,1.14.138,0,.263,0,.4-.012.075,0,.7-.025.7.538,0,.288-.251.6-.751.6-1.591,0-4.109-.5-4.109-2.281a1.777,1.777,0,0,1,1.6-1.653,8.159,8.159,0,0,1,1.729-.162,14.98,14.98,0,0,1,1.6.088h.1c.1,0,.151-.025.151-.1,0-.288-.3-.789-1.3-2.356a7.893,7.893,0,0,1-1.867.251" transform="translate(-39.893 -0.863)" fill="#2a518a"/>
    <path id="パス_963" data-name="パス 963" d="M107.3,7.383c-.038-.6-.063-.852-.063-1.178,0-.212,0-.776.576-.776.451,0,.526.351.526.889,0,.15-.012.263-.012.426,0,3.4,1.328,3.947,1.5,3.947s.426-.113.864-1.1a.477.477,0,0,1,.438-.313.575.575,0,0,1,.577.526c0,.25-.765,2.08-1.917,2.08-1.027,0-2.305-1.453-2.493-4.5m8.256,1.8a4.006,4.006,0,0,0-1.453-2.48.434.434,0,0,1-.2-.351.5.5,0,0,1,.5-.476c.715,0,2.281,2,2.281,3.119a.624.624,0,0,1-.614.652.528.528,0,0,1-.514-.463" transform="translate(-49.578 -2.51)" fill="#2a518a"/>
    <path id="パス_964" data-name="パス 964" d="M139.772,2.243c0,.326-.012.626-.012.777-.025.714-.514,1.039-1.329,1.065-.664.013-1.315.025-1.979.025-.539,0-1.09-.012-1.654-.025-.827-.025-1.2-.363-1.228-1.065,0-.151-.012-.439-.012-.777l-1.779.013a.41.41,0,0,1-.426-.439.407.407,0,0,1,.426-.426h1.779c0-.288.012-.538.012-.676A.477.477,0,0,1,134.523.7v.714h1.642V.477A.469.469,0,0,1,136.652,0a.462.462,0,0,1,.489.476v.939h1.666c0-.325-.013-.613-.013-.714V.69a.424.424,0,0,1,.464-.426.466.466,0,0,1,.5.438c0,.126.012.376.012.689h1.9a.407.407,0,0,1,.413.439.4.4,0,0,1-.413.426Zm.852,4.259c0-.526-.025-.765-.715-.776-.764-.012-1.742-.025-2.756-.025v1.04c.576,0,1.153,0,1.8.012a1.117,1.117,0,0,1,1.252,1.165c0,.276.012.676.012.977,0,.977-.638,1.428-1.566,1.428-1.1,0-1.127-.3-1.127-.539s.15-.5.375-.5a.18.18,0,0,1,.088.013,2.951,2.951,0,0,0,.6.088c.388,0,.614-.163.639-.539V8.031c-.012-.288-.176-.476-.551-.476h-1.529l.013,3.094a.508.508,0,0,1-1.015,0l.013-3.094h-1.39c-.564,0-.564.251-.564,1.228,0,.388,0,.814.012,1.128v.013a.466.466,0,0,1-.489.488.5.5,0,0,1-.513-.5c0-.251-.012-.613-.012-.977s.012-.765.012-1.04c.025-.789.488-1.127,1.34-1.14.564-.012,1.078-.012,1.6-.012V5.7c-1.04,0-2.03.013-2.781.025-.639.012-.764.263-.777.589V7.1a.481.481,0,0,1-.513.464.466.466,0,0,1-.5-.476c0-.163-.013-.363-.013-.563s.013-.4.013-.551c.025-.564.438-1.09,1.353-1.1,1.228-.012,2.631-.025,4.009-.025,1.153,0,2.28.013,3.32.025a1.267,1.267,0,0,1,1.39,1.078c.013.188.013.438.013.689,0,.526,0,.965-.552.965a.47.47,0,0,1-.5-.463Zm-4.46-4.272h-1.642V2.82c.025.489.163.489,1.642.489Zm.977,0v1.09c1.39,0,1.629,0,1.653-.5,0-.088.013-.313.013-.589Z" transform="translate(-60.727 -0.001)" fill="#2a518a"/>
    <path id="パス_965" data-name="パス 965" d="M157,10.678a.458.458,0,0,1,0-.915h.989c-.012-.815-.012-2.18-.012-3.395,0-.89,0-1.692.012-2.143.013-.776.526-1.315,1.516-1.328l1.29-.012a11.072,11.072,0,0,0,.426-1.6.48.48,0,0,1,.526-.351c.3,0,.626.163.626.476a5.285,5.285,0,0,1-.488,1.466c.338,0,.689-.012,1.04-.012q.9,0,1.766.037a1.372,1.372,0,0,1,1.453,1.353c.013.551.025,1.854.025,3.12,0,.9-.012,1.792-.012,2.393h1.014a.458.458,0,0,1,0,.915Zm3.42-6.9c-.276,0-.526.013-.777.013a.589.589,0,0,0-.639.564c-.013.438-.013,1.428-.013,2.493s0,2.192.013,2.919h1.416Zm2.33-.012h-1.378v6h1.378Zm2.367,6c.012-.889.025-2.393.025-3.645,0-.764,0-1.429-.013-1.792-.012-.313-.2-.526-.613-.539-.263,0-.539-.013-.815-.013V9.763Z" transform="translate(-72.383 -0.431)" fill="#2a518a"/>
    <path id="パス_966" data-name="パス 966" d="M184.631,12.506a.569.569,0,0,1-.138-1.128,7.757,7.757,0,0,0,5.187-5.487c0-.388-.188-.413-1.253-.413-1.24,0-2.932.063-4.411.113h-.024a.533.533,0,1,1,0-1.065c1.165-.05,2.668-.075,4.009-.075.588,0,1.14,0,1.628.012A1.246,1.246,0,0,1,191,5.654a1.466,1.466,0,0,1-.088.5,9.579,9.579,0,0,1-5.926,6.276.921.921,0,0,1-.351.076" transform="translate(-84.815 -2.058)" fill="#2a518a"/>
    <path id="パス_967" data-name="パス 967" d="M206.063,14.173a.78.78,0,0,1-.4.125.508.508,0,0,1-.538-.476.538.538,0,0,1,.351-.476,3.543,3.543,0,0,0,1.967-3.27c0-.138-.012-.276-.025-.413V9.588a.482.482,0,0,1,.514-.5.522.522,0,0,1,.551.539c0,.125-.012.238-.012.351,1.2-.513,1.879-1.2,1.879-1.415,0-.063-.051-.075-.151-.075h-.6c-1.115,0-2.743.025-3.821.075h-.05c-.363,0-.551-.213-.551-.439a.5.5,0,0,1,.526-.463c1.34-.062,3.357-.062,4.748-.062.651,0,1.065.363,1.065.839,0,.965-2.33,2.468-2.982,2.468a.623.623,0,0,1-.163-.025,4.716,4.716,0,0,1-2.305,3.295" transform="translate(-94.833 -3.512)" fill="#2a518a"/>
    <path id="パス_968" data-name="パス 968" d="M229.476,11.55a12.41,12.41,0,0,0-3.834-1.98.508.508,0,0,1-.363-.488.557.557,0,0,1,.589-.551,12.425,12.425,0,0,1,4.385,1.967.68.68,0,0,1,.251.526.669.669,0,0,1-.613.7.622.622,0,0,1-.414-.175m-1.24-4.209a6.641,6.641,0,0,0-2.142-.789c-.339-.062-.489-.275-.489-.488a.584.584,0,0,1,.6-.551,8.385,8.385,0,0,1,2.593.8.609.609,0,0,1,.351.551.572.572,0,0,1-.551.589.615.615,0,0,1-.363-.113m.814-2.756a9.652,9.652,0,0,0-2.944-.877.448.448,0,0,1-.439-.438.632.632,0,0,1,.664-.589,10.872,10.872,0,0,1,3.133.815.661.661,0,0,1,.426.6.557.557,0,0,1-.526.576.625.625,0,0,1-.313-.088" transform="translate(-104.152 -1.239)" fill="#2a518a"/>
    <path id="パス_969" data-name="パス 969" d="M244.96,7.613a.516.516,0,0,1-.551-.514V7.062c.025-.488.037-1.1.037-1.729,0-.965-.024-1.979-.062-2.706V2.59a.5.5,0,0,1,.552-.489.513.513,0,0,1,.563.489c.038.7.051,1.779.051,2.769,0,.626,0,1.228-.012,1.679a.558.558,0,0,1-.576.576m4.021-4.648c0,.977.038,2.093.038,2.969a6.128,6.128,0,0,1-3.232,5.788.879.879,0,0,1-.451.138.528.528,0,0,1-.551-.527.571.571,0,0,1,.326-.5,5,5,0,0,0,2.781-4.886c0-.99-.063-2.544-.063-3.545a.513.513,0,0,1,.564-.513.54.54,0,0,1,.589.5Z" transform="translate(-112.984 -0.873)" fill="#2a518a"/>
    <path id="パス_970" data-name="パス 970" d="M261.8,10.269a.507.507,0,0,1-.564-.513A.543.543,0,0,1,261.8,9.2h7.893a.532.532,0,1,1,0,1.065Z" transform="translate(-120.773 -4.255)" fill="#2a518a"/>
    <path id="パス_971" data-name="パス 971" d="M283.175,10.053a.572.572,0,0,1-.576-.563.61.61,0,0,1,.326-.526,7.282,7.282,0,0,0,2.731-3.445.6.6,0,0,1,.552-.426.594.594,0,0,1,.588.577A9.083,9.083,0,0,1,283.6,9.915a.744.744,0,0,1-.426.138m8.381-.689a9.53,9.53,0,0,0-2.506-3.558.436.436,0,0,1-.176-.351.526.526,0,0,1,.539-.488.684.684,0,0,1,.476.2c1.441,1.278,2.857,3.207,2.857,3.984a.667.667,0,0,1-.639.676.579.579,0,0,1-.551-.463m-.313-4.234a4.221,4.221,0,0,0-1.09-.789.36.36,0,0,1-.25-.326.442.442,0,0,1,.451-.4c.226,0,1.616.626,1.616,1.19a.478.478,0,0,1-.438.476.387.387,0,0,1-.288-.15m1.115-1.04a4.036,4.036,0,0,0-1.1-.764A.357.357,0,0,1,290.993,3a.443.443,0,0,1,.451-.414c.288,0,1.629.6,1.629,1.165a.479.479,0,0,1-.438.476.366.366,0,0,1-.276-.138" transform="translate(-130.652 -1.196)" fill="#2a518a"/>
    <path id="パス_972" data-name="パス 972" d="M311.9,7.273a5,5,0,0,0-1.917-1.027.438.438,0,0,1-.338-.451.574.574,0,0,1,.577-.576A6.546,6.546,0,0,1,312.681,6.3a.588.588,0,0,1,.251.476.685.685,0,0,1-.626.689.59.59,0,0,1-.4-.188M310.74,12.5a.6.6,0,0,1-.626-.589.661.661,0,0,1,.551-.613,10.72,10.72,0,0,0,6.327-5.55.569.569,0,0,1,.526-.338.542.542,0,0,1,.564.551.932.932,0,0,1-.113.4c-2.606,4.9-6.853,6.139-7.229,6.139" transform="translate(-143.158 -2.413)" fill="#2a518a"/>
    <path id="パス_973" data-name="パス 973" d="M332.065,7.658a.519.519,0,0,1-.526-.513.608.608,0,0,1,.326-.514,14.543,14.543,0,0,0,3.458-4.084.509.509,0,0,1,.463-.263.551.551,0,0,1,.589.513.7.7,0,0,1-.125.376l-.2.288c.99-.088,1.8-.125,1.941-.125.715,0,1.266.4,1.266.965a.993.993,0,0,1-.125.463c-1.454,2.831-3.295,5.45-6.765,6.828a1.048,1.048,0,0,1-.363.075.544.544,0,0,1-.589-.513c0-.226.15-.451.5-.576a10.686,10.686,0,0,0,5.963-5.989c0-.175-.113-.3-.338-.3-.439,0-1.817.151-2.217.188-1.116,1.466-2.619,3.183-3.258,3.183" transform="translate(-153.22 -1.056)" fill="#2a518a"/>
  </g>
</svg>
