<svg id="グループ_295" data-name="グループ 295" xmlns="http://www.w3.org/2000/svg" xmlns:xlink="http://www.w3.org/1999/xlink" width="227.683" height="68.247" viewBox="0 0 227.683 68.247">
  <defs>
    <clipPath id="clip-path">
      <rect id="長方形_258" data-name="長方形 258" width="227.683" height="68.247" fill="none"/>
    </clipPath>
  </defs>
  <rect id="長方形_256" data-name="長方形 256" width="1.913" height="9.536" transform="translate(77.426 58.547)" fill="#104079"/>
  <path id="パス_935" data-name="パス 935" d="M116.842,77.989V85.12h-.027l-3.634-7.131h-2.349v9.536h1.831V80.394h.027l3.648,7.131h2.335V77.989Z" transform="translate(-27.629 -19.442)" fill="#104079"/>
  <g id="グループ_294" data-name="グループ 294" transform="translate(0 0)">
    <g id="グループ_293" data-name="グループ 293" clip-path="url(#clip-path)">
      <path id="パス_936" data-name="パス 936" d="M131.658,79.684a4.935,4.935,0,0,0-1.94-.41,1.327,1.327,0,0,0-1.5,1.325c0,1.653,4.18.956,4.18,4.153,0,2.091-1.653,2.883-3.579,2.883a8.39,8.39,0,0,1-2.446-.369l.178-1.721a4.6,4.6,0,0,0,2.158.587c.724,0,1.694-.369,1.694-1.23,0-1.817-4.18-1.065-4.18-4.221,0-2.131,1.653-2.911,3.333-2.911a7.2,7.2,0,0,1,2.281.342Z" transform="translate(-31.465 -19.388)" fill="#104079"/>
      <path id="パス_937" data-name="パス 937" d="M140.706,79.492h-2.733v-1.5h7.377v1.5h-2.733v8.033h-1.912Z" transform="translate(-34.395 -19.442)" fill="#104079"/>
      <rect id="長方形_257" data-name="長方形 257" width="1.913" height="9.535" transform="translate(113.917 58.547)" fill="#104079"/>
      <path id="パス_938" data-name="パス 938" d="M160.971,79.492h-2.733v-1.5h7.377v1.5h-2.733v8.033h-1.912Z" transform="translate(-39.447 -19.442)" fill="#104079"/>
      <path id="パス_939" data-name="パス 939" d="M172.138,77.99h1.913v5.5c0,1.625.519,2.691,1.98,2.691s1.981-1.066,1.981-2.691v-5.5h1.912v6.093c0,2.555-1.448,3.606-3.893,3.606s-3.893-1.052-3.893-3.606Z" transform="translate(-42.911 -19.442)" fill="#104079"/>
      <path id="パス_940" data-name="パス 940" d="M189.313,79.492h-2.732v-1.5h7.377v1.5h-2.733v8.033h-1.913Z" transform="translate(-46.512 -19.442)" fill="#104079"/>
      <path id="パス_941" data-name="パス 941" d="M200.571,77.99H206.2v1.5h-3.715v2.35h3.4v1.5h-3.4v2.678h3.742v1.5h-5.655Z" transform="translate(-49.999 -19.442)" fill="#104079"/>
      <path id="パス_942" data-name="パス 942" d="M42.14,38.568c0,6.3,3.581,10.313,10.066,10.313a22.509,22.509,0,0,0,5.557-.607V41.748a7.831,7.831,0,0,1-3.459.711c-3.148,0-3.89-2.531-3.89-5.25V22.39h3.236c3.5,0,4.112-6.054,4.112-6.054H50.414V7.32L42.14,9.977Z" transform="translate(-10.505 -1.825)" fill="#104079"/>
      <path id="パス_943" data-name="パス 943" d="M9.28,27.917c0-2.719,2.655-3.52,4.878-3.52a20.275,20.275,0,0,1,7.41,1.359V19.635a29.417,29.417,0,0,0-8.46-1.29C6.623,18.345,0,21.37,0,28.224c0,11.487,15.023,7.225,15.023,13.463,0,3.088-3.337,3.89-5.436,3.89a18.161,18.161,0,0,1-8.151-2.1v6.477a29.3,29.3,0,0,0,8.892,1.675c6.731,0,13.972-2.965,13.972-10.376C24.3,29.768,9.28,32.98,9.28,27.917" transform="translate(0 -4.574)" fill="#104079"/>
      <path id="パス_944" data-name="パス 944" d="M94.376,43.169a19.906,19.906,0,0,1-9.044,2.408c-5.125,0-8.708-2.9-9.078-8.027H96.983c0-11.117-2.079-19.206-13.874-19.206-9.882,0-14.037,7.595-14.037,16.8,0,10.436,5.391,16.489,15.89,16.489a22.553,22.553,0,0,0,9.413-2.2ZM83.6,24.4c4.632,0,6.29,3.459,6.536,7.473H76.254c.37-4.262,2.717-7.473,7.349-7.473" transform="translate(-17.219 -4.574)" fill="#104079"/>
      <path id="パス_945" data-name="パス 945" d="M250.651,43.169a19.906,19.906,0,0,1-9.043,2.408c-5.126,0-8.708-2.9-9.078-8.027h20.729c0-11.117-2.079-19.206-13.874-19.206-9.882,0-14.037,7.595-14.037,16.8,0,10.436,5.391,16.489,15.89,16.489a22.553,22.553,0,0,0,9.413-2.2ZM239.878,24.4c4.632,0,6.29,3.459,6.536,7.473H232.529c.37-4.262,2.717-7.473,7.349-7.473" transform="translate(-56.176 -4.574)" fill="#104079"/>
      <path id="パス_946" data-name="パス 946" d="M210.544,43.726a17.529,17.529,0,0,1-6.359,1.481c-5.805,0-8.584-4.508-8.584-10.375,0-5.99,3.273-10.066,8.4-10.066a12.479,12.479,0,0,1,5.62,1.173V19.2a27.482,27.482,0,0,0-7.286-.859c-9.944,0-15.378,7.287-15.378,16.487,0,9.7,5.25,16.8,15.685,16.8a27.515,27.515,0,0,0,7.9-.953Z" transform="translate(-46.605 -4.574)" fill="#104079"/>
      <path id="パス_947" data-name="パス 947" d="M162.93,45.525V30.82c0-7.1-2.223-12.475-10.066-12.475-3.89,0-8.028,1.79-9.944,5.62-1.789-3.953-4.94-5.62-9.385-5.62a11.2,11.2,0,0,0-9.448,5.186h-.124V21.9a2.935,2.935,0,0,0-2.968-2.811h-5.19a38.285,38.285,0,0,1,.439,6.206V45.525a47.113,47.113,0,0,1-.283,5.365h8.84s-.283-3.645-.283-5.365V35.45c0-4.136.232-10.683,5.727-10.683,4.756,0,5.2,4.2,5.2,7.165V45.525a47.113,47.113,0,0,1-.283,5.365h8.84s-.283-3.645-.283-5.365V35.45c0-4.136.232-10.683,5.727-10.683,4.756,0,5.2,4.2,5.2,7.165V46.69c0,2.566,1.208,4.2,2.9,4.2h5.658s-.283-2.721-.283-5.365" transform="translate(-28.868 -4.574)" fill="#104079"/>
      <path id="パス_948" data-name="パス 948" d="M280.34,40.951V0l-8.274,2.657V40.951a47.113,47.113,0,0,1-.283,5.365h8.84s-.283-3.645-.283-5.365" transform="translate(-67.752 0)" fill="#104079"/>
      <path id="パス_949" data-name="パス 949" d="M300.069,40.951V0l-8.274,2.657V40.951a47.234,47.234,0,0,1-.282,5.365h8.84s-.284-3.645-.284-5.365" transform="translate(-72.67 0)" fill="#104079"/>
    </g>
  </g>
</svg>
